<svg xmlns="http://www.w3.org/2000/svg" xmlns:xlink="http://www.w3.org/1999/xlink" version="1.1" x="0px" y="0px" viewBox="0 0 100 100" enable-background="new 0 0 96 96" xml:space="preserve"><g><rect x="66.26" y="70.52" transform="matrix(0.707 -0.7072 0.7072 0.707 -29.9032 72.2039)" width="11.865" height="3.346"/><path d="M71.728,63.338l1.705-1.705l-1.108-1.107l4.166-4.168l-3.129-3.131l-4.411,4.412L59.312,48L86.28,21.031L88,8L74.969,9.721   L48,36.689L21.031,9.721L8,8l1.72,13.031L36.688,48l-9.638,9.638l-4.411-4.412l-3.129,3.131l4.166,4.168l-1.108,1.107l1.705,1.705   l-2.366,2.367l8.389,8.391l2.367-2.367l1.704,1.703l1.109-1.107l4.168,4.168l3.129-3.129l-4.41-4.412L48,59.313l9.638,9.638   l-4.41,4.412l3.129,3.129l4.168-4.168l1.109,1.107l1.704-1.703l2.367,2.367l8.389-8.391L71.728,63.338z M41.247,73.363   l-1.604,1.604L21.034,56.357l1.604-1.604l3.649,3.648l11.311,11.311L41.247,73.363z M56.356,74.967l-1.604-1.604l3.648-3.65   l11.311-11.311l3.649-3.648l1.604,1.604L56.356,74.967z"/><rect x="69.737" y="73.997" transform="matrix(0.7071 -0.7071 0.7071 0.7071 -31.3445 75.6695)" width="11.863" height="3.348"/><rect x="73.213" y="77.473" transform="matrix(0.707 -0.7072 0.7072 0.707 -32.7838 79.1588)" width="11.865" height="3.348"/><rect x="80.948" y="76.69" transform="matrix(-0.7071 -0.7071 0.7071 -0.7071 82.6212 199.467)" width="3.348" height="11.864"/><rect x="17.875" y="70.521" transform="matrix(-0.7072 -0.707 0.707 -0.7072 -10.3992 140.0799)" width="11.865" height="3.346"/><rect x="14.399" y="73.996" transform="matrix(-0.707 -0.7072 0.7072 -0.707 -18.8073 143.5483)" width="11.865" height="3.348"/><rect x="10.922" y="77.473" transform="matrix(-0.707 -0.7072 0.7072 -0.707 -27.2005 147.0243)" width="11.865" height="3.348"/><rect x="7.446" y="80.948" transform="matrix(-0.7071 -0.7071 0.7071 -0.7071 -35.5803 150.5075)" width="11.864" height="3.348"/></g><text x="0" y="111" fill="#000000" font-size="5px" font-weight="bold" font-family="'Helvetica Neue', Helvetica, Arial-Unicode, Arial, Sans-serif">Created by Fahmihorizon</text><text x="0" y="116" fill="#000000" font-size="5px" font-weight="bold" font-family="'Helvetica Neue', Helvetica, Arial-Unicode, Arial, Sans-serif">from the Noun Project</text></svg>