<?xml version="1.0" standalone="no"?>
<!DOCTYPE svg PUBLIC "-//W3C//DTD SVG 20010904//EN"
 "http://www.w3.org/TR/2001/REC-SVG-20010904/DTD/svg10.dtd">
<svg version="1.0" xmlns="http://www.w3.org/2000/svg"
 width="256.000000pt" height="256.000000pt" viewBox="0 0 256.000000 256.000000"
 preserveAspectRatio="xMidYMid meet">

<g transform="translate(0.000000,256.000000) scale(0.100000,-0.100000)"
 stroke="none">
<path d="M1131 2490 c-54 -12 -116 -42 -158 -78 l-33 -27 165 -290 c90 -159
169 -290 175 -290 6 0 85 130 175 290 188 332 183 300 58 362 -72 36 -77 37
-206 39 -73 2 -152 -1 -176 -6z"/>
<path d="M685 2189 c-139 -74 -174 -102 -210 -164 -37 -63 -475 -1105 -475
-1130 0 -46 31 -64 243 -140 212 -77 239 -82 270 -47 8 10 46 96 85 192 39 96
79 193 89 215 l18 40 5 -181 5 -181 230 405 c127 222 231 410 233 416 2 10
-337 619 -356 638 -4 4 -65 -24 -137 -63z"/>
<path d="M1722 2228 c-22 -37 -882 -1550 -901 -1586 l-12 -22 521 0 520 0 0
267 c0 152 4 263 9 258 4 -6 46 -102 91 -215 46 -113 88 -211 94 -219 30 -38
53 -35 266 40 211 75 250 97 250 142 0 26 -436 1067 -475 1134 -36 60 -88 100
-223 171 l-120 62 -20 -32z"/>
<path d="M710 280 c0 -225 -2 -223 194 -218 l109 3 43 185 c24 102 43 188 44
193 0 4 -88 7 -195 7 l-195 0 0 -170z"/>
<path d="M1509 258 l139 -193 58 -3 c71 -4 98 2 124 28 18 18 20 34 20 190 l0
170 -240 0 -240 0 139 -192z"/>
<path d="M1217 208 c-15 -68 -27 -129 -27 -135 0 -10 32 -13 126 -13 69 0 124
4 122 8 -6 17 -183 262 -189 262 -3 0 -17 -55 -32 -122z"/>
</g>
</svg>
