<?xml version="1.0" standalone="no"?>
<!DOCTYPE svg PUBLIC "-//W3C//DTD SVG 20010904//EN"
 "http://www.w3.org/TR/2001/REC-SVG-20010904/DTD/svg10.dtd">
<svg version="1.0" xmlns="http://www.w3.org/2000/svg"
 width="512.000000pt" height="512.000000pt" viewBox="0 0 512.000000 512.000000"
 preserveAspectRatio="xMidYMid meet">

<g transform="translate(0.000000,512.000000) scale(0.100000,-0.100000)"
 stroke="none">
<path d="M2173 4243 c-77 -3 -103 -7 -103 -17 0 -28 61 -161 104 -225 58 -87
137 -161 217 -203 61 -31 69 -33 169 -33 96 0 110 2 165 30 75 37 189 148 236
230 39 67 89 179 89 199 0 22 -454 32 -877 19z"/>
<path d="M1515 4189 c-260 -31 -685 -106 -702 -123 -5 -5 27 -657 32 -664 1
-1 33 2 71 7 38 6 142 15 232 21 152 10 166 9 206 -9 27 -12 51 -32 66 -56
l23 -37 -6 -717 c-4 -394 -10 -935 -14 -1202 l-6 -485 31 -35 30 -34 1082 0
1082 0 30 34 31 35 -6 480 c-4 265 -10 805 -14 1201 -6 656 -5 723 10 752 21
39 62 69 107 78 31 5 303 -14 430 -31 l46 -6 17 313 c10 173 17 324 17 336 0
19 -11 24 -92 42 -193 43 -574 101 -769 117 l-86 7 -27 -82 c-115 -347 -337
-584 -616 -657 -85 -22 -235 -22 -320 0 -198 50 -373 191 -501 402 -51 83 -78
142 -114 252 l-27 82 -47 -1 c-25 -1 -113 -9 -196 -20z"/>
<path d="M271 3470 c-134 -168 -250 -319 -257 -337 -8 -18 -14 -45 -14 -60 0
-32 166 -1093 171 -1097 5 -4 443 25 447 29 5 4 -87 1640 -95 1710 l-8 59
-244 -304z"/>
<path d="M4596 3719 c-8 -77 -98 -1710 -94 -1714 4 -4 442 -33 447 -29 5 4
171 1065 171 1097 0 15 -6 42 -14 60 -11 26 -445 580 -491 626 -11 11 -14 5
-19 -40z"/>
<path d="M375 1686 l-150 -11 3 -57 c3 -83 21 -129 60 -151 30 -18 40 -18 130
-8 147 18 161 22 193 48 28 24 29 28 29 109 l0 84 -57 -2 c-32 0 -125 -6 -208
-12z"/>
<path d="M4480 1616 c0 -81 1 -85 29 -109 32 -26 46 -30 193 -48 90 -10 100
-10 130 8 39 22 57 68 60 151 l3 57 -155 12 c-85 6 -179 12 -207 12 l-53 1 0
-84z"/>
</g>
</svg>
